<svg xmlns="http://www.w3.org/2000/svg" xmlns:xlink="http://www.w3.org/1999/xlink" width="1080" zoomAndPan="magnify" viewBox="0 0 810 809.999993" height="1080" preserveAspectRatio="xMidYMid meet" version="1.2"><defs><clipPath id="b1f75aadf0"><path d="M 300 237 L 558 237 L 558 573 L 300 573 Z M 300 237 "/></clipPath><clipPath id="a710f1f1dc"><path d="M 350.832031 206.417969 L 602.976562 348.664062 L 459.257812 603.421875 L 207.117188 461.175781 Z M 350.832031 206.417969 "/></clipPath><clipPath id="6f047c9da9"><path d="M 350.832031 206.417969 L 602.976562 348.664062 L 459.257812 603.421875 L 207.117188 461.175781 Z M 350.832031 206.417969 "/></clipPath></defs><g id="467f9d021b"><rect x="0" width="810" y="0" height="809.999993" style="fill:#ffffff;fill-opacity:1;stroke:none;"/><rect x="0" width="810" y="0" height="809.999993" style="fill:#fbfbf5;fill-opacity:1;stroke:none;"/><g clip-rule="nonzero" clip-path="url(#b1f75aadf0)"><g clip-rule="nonzero" clip-path="url(#a710f1f1dc)"><g clip-rule="nonzero" clip-path="url(#6f047c9da9)"><path style=" stroke:none;fill-rule:nonzero;fill:#ff3131;fill-opacity:1;" d="M 368.984375 541.050781 C 351.140625 523.929688 342.585938 506.972656 333.59375 488.78125 C 314.257812 449.625 306.765625 413.304688 303.640625 388.042969 C 300.949219 366.183594 297.457031 335.484375 307.402344 298.605469 C 315.226562 269.5625 325.339844 259.113281 330.90625 254.308594 C 344.789062 242.328125 369.476562 231.78125 384.753906 241.570312 C 391.960938 246.1875 394.839844 257.097656 400.300781 278.746094 C 407.375 306.789062 410.914062 320.820312 404.464844 329.792969 C 404.464844 329.792969 400.484375 335.335938 364.285156 346.175781 C 364.285156 346.175781 363.308594 377.105469 368.597656 402.371094 C 377.058594 442.832031 403.253906 476.695312 403.253906 476.695312 C 403.253906 476.695312 428.539062 463.734375 443.835938 470.242188 C 452.292969 473.84375 455.578125 482.8125 461.800781 500.585938 C 471.789062 529.113281 478.257812 547.582031 468.699219 560.277344 C 458.050781 574.425781 434.21875 572.4375 426.460938 571.785156 C 399.136719 569.5 380.546875 552.140625 368.984375 541.050781 Z M 486.914062 298.753906 C 489.574219 300.234375 492.175781 301.820312 494.707031 303.511719 C 495.644531 304.136719 496.578125 304.785156 497.5 305.441406 C 497.914062 305.734375 498.328125 306.027344 498.734375 306.328125 C 499.285156 306.722656 501.21875 308.464844 499.363281 306.777344 C 501.382812 308.605469 503.667969 310.171875 505.734375 311.964844 C 510.769531 316.347656 515.46875 321.144531 519.722656 326.296875 C 520.328125 327.023438 520.910156 327.761719 521.503906 328.503906 C 522.539062 329.789062 520.617188 327.316406 521.625 328.65625 C 521.910156 329.046875 522.210938 329.433594 522.496094 329.824219 C 523.679688 331.421875 524.832031 333.058594 525.9375 334.707031 C 528.171875 338.054688 530.226562 341.527344 532.101562 345.09375 C 533.128906 347.046875 534.09375 349.039062 535.003906 351.058594 C 535.160156 351.402344 535.3125 351.75 535.460938 352.089844 C 535.539062 352.265625 536.273438 354.003906 535.6875 352.601562 C 536.203125 353.847656 536.699219 355.101562 537.179688 356.375 C 538.734375 360.519531 540.054688 364.761719 541.125 369.0625 C 541.652344 371.183594 542.117188 373.328125 542.523438 375.472656 C 542.691406 376.351562 542.839844 377.21875 542.984375 378.09375 C 543.066406 378.613281 543.152344 379.144531 543.234375 379.660156 C 542.976562 377.980469 543.308594 380.257812 543.347656 380.554688 C 543.832031 384.394531 544.113281 388.257812 544.210938 392.121094 C 544.304688 395.910156 544.199219 399.710938 543.917969 403.496094 C 543.867188 404.25 543.800781 405.007812 543.726562 405.761719 C 543.6875 406.210938 543.644531 406.65625 543.59375 407.109375 C 543.582031 407.257812 543.558594 407.402344 543.546875 407.554688 C 543.464844 408.277344 543.480469 408.144531 543.589844 407.15625 C 543.726562 407.898438 543.355469 409.027344 543.246094 409.773438 C 543.128906 410.621094 543 411.476562 542.855469 412.324219 C 541.867188 418.375 540.425781 424.347656 538.570312 430.183594 C 537.671875 432.996094 536.570312 435.714844 535.609375 438.488281 C 535.601562 438.519531 536.339844 436.703125 535.9375 437.648438 C 535.789062 437.996094 535.644531 438.363281 535.503906 438.714844 C 535.253906 439.3125 535.003906 439.90625 534.75 440.5 C 534.316406 441.507812 533.863281 442.503906 533.40625 443.5 C 532.175781 446.132812 530.851562 448.738281 529.402344 451.261719 C 527.667969 454.296875 528.738281 458.746094 531.941406 460.375 C 535.199219 462.019531 539.1875 461.085938 541.054688 457.835938 C 551.507812 439.582031 557.132812 418.183594 557.597656 397.226562 C 558.367188 362.757812 543.714844 329.183594 518.675781 305.652344 C 511.085938 298.523438 502.605469 292.164062 493.480469 287.113281 C 490.421875 285.421875 486.015625 286.410156 484.367188 289.652344 C 482.742188 292.855469 483.632812 296.941406 486.914062 298.753906 Z M 469.050781 327.730469 C 471.070312 328.808594 473.046875 329.984375 474.957031 331.230469 C 476.429688 332.195312 477.867188 333.210938 479.296875 334.246094 C 480.476562 335.105469 477.882812 333.144531 479.367188 334.296875 C 479.746094 334.582031 480.113281 334.875 480.488281 335.171875 C 481.371094 335.875 482.230469 336.589844 483.085938 337.324219 C 486.917969 340.617188 490.46875 344.214844 493.6875 348.105469 C 494.097656 348.597656 494.488281 349.097656 494.890625 349.589844 C 495.679688 350.578125 494.746094 349.496094 494.726562 349.363281 C 494.753906 349.523438 495.1875 349.976562 495.320312 350.144531 C 496.21875 351.351562 497.089844 352.589844 497.933594 353.851562 C 499.699219 356.511719 501.316406 359.265625 502.765625 362.109375 C 503.445312 363.445312 504.085938 364.785156 504.691406 366.152344 C 504.84375 366.5 505 366.84375 505.148438 367.203125 C 504.664062 366.050781 505.058594 366.996094 505.144531 367.226562 C 505.5 368.136719 505.863281 369.054688 506.195312 369.964844 C 507.339844 373.144531 508.300781 376.398438 509.058594 379.695312 C 509.375 381.078125 509.664062 382.472656 509.898438 383.871094 C 510.019531 384.554688 510.148438 385.242188 510.234375 385.925781 C 510.054688 384.511719 510.167969 385.46875 510.203125 385.765625 C 510.269531 386.273438 510.332031 386.777344 510.386719 387.28125 C 510.703125 390.136719 510.871094 393.003906 510.886719 395.882812 C 510.902344 398.589844 510.789062 401.289062 510.546875 403.984375 C 510.5 404.476562 510.578125 405.316406 510.371094 405.753906 C 510.769531 404.917969 510.503906 404.660156 510.410156 405.339844 C 510.363281 405.699219 510.316406 406.0625 510.269531 406.421875 C 510.097656 407.6875 509.894531 408.945312 509.667969 410.203125 C 508.878906 414.53125 507.78125 418.808594 506.390625 422.980469 C 506.035156 424.035156 505.675781 425.082031 505.285156 426.117188 C 505.105469 426.605469 504.902344 427.09375 504.722656 427.585938 C 504.351562 428.558594 505.066406 426.742188 505.054688 426.757812 C 504.929688 427.027344 504.828125 427.308594 504.722656 427.585938 C 504.074219 429.160156 503.378906 430.710938 502.640625 432.234375 C 501.738281 434.113281 500.757812 435.957031 499.695312 437.757812 C 497.910156 440.765625 499.054688 445.257812 502.234375 446.871094 C 505.527344 448.535156 509.441406 447.558594 511.347656 444.332031 C 519.285156 430.878906 523.605469 414.992188 524.199219 399.449219 C 525.195312 373.449219 514.175781 347.882812 495.1875 330.210938 C 489.304688 324.734375 482.703125 319.855469 475.601562 316.050781 C 472.519531 314.398438 468.140625 315.316406 466.488281 318.589844 C 464.898438 321.792969 465.742188 325.960938 469.050781 327.730469 Z M 453.371094 356.417969 C 454.746094 357.230469 456.085938 358.105469 457.382812 359.03125 C 457.632812 359.207031 457.878906 359.394531 458.128906 359.570312 C 458.980469 360.171875 457.472656 359.082031 457.480469 359.074219 C 457.921875 359.441406 458.394531 359.78125 458.84375 360.15625 C 459.953125 361.058594 461.023438 362 462.0625 362.984375 C 463.125 363.980469 464.140625 365.023438 465.125 366.097656 C 465.65625 366.675781 466.167969 367.265625 466.675781 367.863281 C 466.984375 368.234375 467.285156 368.617188 467.597656 368.988281 C 468.472656 370.0625 466.863281 367.933594 467.746094 369.191406 C 469.949219 372.316406 471.949219 375.527344 473.535156 379.019531 C 473.515625 378.96875 474.257812 380.726562 473.90625 379.855469 C 473.554688 378.96875 474.273438 380.808594 474.238281 380.742188 C 474.585938 381.648438 474.902344 382.5625 475.1875 383.484375 C 475.789062 385.367188 476.285156 387.285156 476.664062 389.222656 C 476.726562 389.558594 477.207031 392.277344 476.941406 390.570312 C 477.070312 391.390625 477.15625 392.222656 477.230469 393.050781 C 477.386719 394.800781 477.46875 396.558594 477.464844 398.320312 C 477.460938 399.824219 477.390625 401.339844 477.265625 402.835938 C 477.25 403.128906 477.214844 403.421875 477.1875 403.707031 C 477.058594 405.238281 477.402344 402.191406 477.1875 403.683594 C 477.070312 404.511719 476.960938 405.328125 476.816406 406.140625 C 476.371094 408.699219 475.769531 411.238281 474.996094 413.722656 C 474.65625 414.820312 474.296875 415.90625 473.894531 416.980469 C 473.792969 417.25 473.695312 417.507812 473.589844 417.773438 C 473.191406 418.886719 474.308594 416.058594 473.859375 417.105469 C 473.667969 417.554688 473.484375 418.003906 473.292969 418.453125 C 472.777344 419.621094 472.222656 420.777344 471.621094 421.90625 C 469.976562 424.996094 470.875 429.363281 474.160156 431.019531 C 477.328125 432.628906 481.511719 431.792969 483.273438 428.480469 C 487.914062 419.742188 490.441406 409.8125 490.800781 399.945312 C 491.390625 383.398438 484.8125 367.125 473.328125 355.28125 C 469.386719 351.214844 464.8125 347.632812 459.945312 344.742188 C 456.9375 342.960938 452.445312 344.101562 450.832031 347.28125 C 449.160156 350.605469 450.140625 354.511719 453.371094 356.417969 Z M 453.371094 356.417969 "/></g></g></g></g></svg>