<svg xmlns="http://www.w3.org/2000/svg" xmlns:xlink="http://www.w3.org/1999/xlink" width="300" zoomAndPan="magnify" viewBox="0 0 224.87999 74.999997" height="100" preserveAspectRatio="xMidYMid meet" version="1.2"><defs><clipPath id="7c90710227"><path d="M 25 13 L 63 13 L 63 62 L 25 62 Z M 25 13 "/></clipPath><clipPath id="47929c1252"><path d="M 32.792969 8.777344 L 69.355469 29.402344 L 48.730469 65.964844 L 12.167969 45.335938 Z M 32.792969 8.777344 "/></clipPath><clipPath id="e061401645"><path d="M 32.792969 8.777344 L 69.355469 29.402344 L 48.730469 65.964844 L 12.167969 45.335938 Z M 32.792969 8.777344 "/></clipPath></defs><g id="5ccf98d648"><g clip-rule="nonzero" clip-path="url(#7c90710227)"><g clip-rule="nonzero" clip-path="url(#47929c1252)"><g clip-rule="nonzero" clip-path="url(#e061401645)"><path style=" stroke:none;fill-rule:nonzero;fill:#ff3131;fill-opacity:1;" d="M 35.398438 56.804688 C 32.839844 54.347656 31.609375 51.914062 30.320312 49.304688 C 27.542969 43.683594 26.46875 38.46875 26.019531 34.84375 C 25.632812 31.707031 25.132812 27.300781 26.558594 22.007812 C 27.683594 17.835938 29.136719 16.335938 29.933594 15.648438 C 31.925781 13.929688 35.46875 12.414062 37.664062 13.820312 C 38.699219 14.484375 39.109375 16.046875 39.894531 19.15625 C 40.910156 23.179688 41.417969 25.195312 40.492188 26.484375 C 40.492188 26.484375 39.921875 27.277344 34.726562 28.835938 C 34.726562 28.835938 34.585938 33.273438 35.34375 36.898438 C 36.558594 42.707031 40.320312 47.566406 40.320312 47.566406 C 40.320312 47.566406 43.949219 45.707031 46.144531 46.640625 C 47.355469 47.160156 47.828125 48.445312 48.722656 50.996094 C 50.15625 55.089844 51.085938 57.742188 49.710938 59.566406 C 48.183594 61.597656 44.761719 61.308594 43.648438 61.214844 C 39.726562 60.886719 37.058594 58.398438 35.398438 56.804688 Z M 52.328125 22.027344 C 52.707031 22.238281 53.082031 22.46875 53.445312 22.710938 C 53.578125 22.800781 53.714844 22.894531 53.847656 22.988281 C 53.90625 23.027344 53.964844 23.070312 54.023438 23.113281 C 54.101562 23.171875 54.378906 23.421875 54.113281 23.179688 C 54.402344 23.441406 54.730469 23.667969 55.027344 23.921875 C 55.75 24.554688 56.425781 25.242188 57.035156 25.980469 C 57.121094 26.085938 57.207031 26.191406 57.292969 26.296875 C 57.441406 26.480469 57.164062 26.128906 57.308594 26.320312 C 57.347656 26.375 57.394531 26.429688 57.433594 26.488281 C 57.605469 26.714844 57.769531 26.953125 57.929688 27.1875 C 58.25 27.667969 58.542969 28.167969 58.8125 28.679688 C 58.960938 28.960938 59.097656 29.246094 59.230469 29.535156 C 59.25 29.585938 59.273438 29.632812 59.292969 29.683594 C 59.304688 29.707031 59.410156 29.957031 59.328125 29.757812 C 59.402344 29.933594 59.472656 30.117188 59.542969 30.296875 C 59.765625 30.894531 59.953125 31.5 60.105469 32.121094 C 60.183594 32.421875 60.25 32.730469 60.308594 33.039062 C 60.332031 33.164062 60.355469 33.289062 60.375 33.414062 C 60.386719 33.488281 60.398438 33.566406 60.410156 33.640625 C 60.375 33.398438 60.421875 33.726562 60.425781 33.769531 C 60.496094 34.320312 60.535156 34.875 60.550781 35.429688 C 60.5625 35.972656 60.546875 36.519531 60.507812 37.0625 C 60.5 37.167969 60.492188 37.277344 60.480469 37.386719 C 60.476562 37.449219 60.46875 37.515625 60.460938 37.578125 C 60.460938 37.601562 60.457031 37.621094 60.457031 37.644531 C 60.441406 37.746094 60.445312 37.726562 60.460938 37.585938 C 60.480469 37.691406 60.429688 37.855469 60.414062 37.960938 C 60.394531 38.085938 60.375 38.207031 60.355469 38.328125 C 60.214844 39.195312 60.007812 40.054688 59.742188 40.890625 C 59.613281 41.296875 59.453125 41.6875 59.316406 42.082031 C 59.316406 42.089844 59.421875 41.828125 59.363281 41.964844 C 59.339844 42.011719 59.320312 42.066406 59.300781 42.117188 C 59.265625 42.203125 59.230469 42.289062 59.191406 42.371094 C 59.128906 42.515625 59.066406 42.660156 59 42.804688 C 58.824219 43.179688 58.632812 43.554688 58.425781 43.917969 C 58.175781 44.351562 58.328125 44.992188 58.789062 45.226562 C 59.257812 45.460938 59.828125 45.328125 60.097656 44.859375 C 61.597656 42.242188 62.40625 39.167969 62.472656 36.160156 C 62.582031 31.214844 60.480469 26.394531 56.886719 23.019531 C 55.796875 21.996094 54.578125 21.082031 53.269531 20.355469 C 52.828125 20.113281 52.199219 20.253906 51.960938 20.722656 C 51.726562 21.179688 51.855469 21.765625 52.328125 22.027344 Z M 49.761719 26.1875 C 50.050781 26.339844 50.335938 26.511719 50.609375 26.6875 C 50.820312 26.828125 51.027344 26.972656 51.234375 27.121094 C 51.402344 27.246094 51.03125 26.964844 51.242188 27.128906 C 51.296875 27.171875 51.351562 27.210938 51.402344 27.253906 C 51.53125 27.355469 51.65625 27.457031 51.777344 27.5625 C 52.328125 28.035156 52.835938 28.550781 53.300781 29.109375 C 53.359375 29.183594 53.414062 29.253906 53.472656 29.324219 C 53.585938 29.464844 53.449219 29.3125 53.449219 29.292969 C 53.453125 29.316406 53.515625 29.378906 53.535156 29.402344 C 53.664062 29.578125 53.789062 29.753906 53.910156 29.9375 C 54.160156 30.316406 54.394531 30.714844 54.601562 31.121094 C 54.699219 31.3125 54.792969 31.503906 54.878906 31.699219 C 54.898438 31.75 54.921875 31.800781 54.945312 31.851562 C 54.875 31.6875 54.929688 31.824219 54.945312 31.855469 C 54.996094 31.984375 55.046875 32.117188 55.09375 32.25 C 55.257812 32.703125 55.398438 33.171875 55.503906 33.644531 C 55.550781 33.84375 55.59375 34.042969 55.625 34.246094 C 55.644531 34.34375 55.660156 34.441406 55.671875 34.539062 C 55.648438 34.335938 55.664062 34.472656 55.667969 34.515625 C 55.679688 34.589844 55.6875 34.660156 55.695312 34.734375 C 55.742188 35.144531 55.765625 35.554688 55.765625 35.96875 C 55.769531 36.355469 55.753906 36.746094 55.71875 37.132812 C 55.710938 37.203125 55.722656 37.324219 55.691406 37.386719 C 55.75 37.265625 55.710938 37.226562 55.699219 37.328125 C 55.691406 37.378906 55.6875 37.429688 55.679688 37.480469 C 55.65625 37.664062 55.625 37.84375 55.59375 38.023438 C 55.480469 38.644531 55.320312 39.257812 55.121094 39.859375 C 55.070312 40.007812 55.019531 40.160156 54.964844 40.308594 C 54.9375 40.378906 54.910156 40.449219 54.882812 40.519531 C 54.828125 40.660156 54.933594 40.398438 54.929688 40.402344 C 54.914062 40.4375 54.898438 40.480469 54.882812 40.519531 C 54.789062 40.746094 54.691406 40.96875 54.582031 41.1875 C 54.453125 41.457031 54.3125 41.722656 54.160156 41.980469 C 53.90625 42.410156 54.070312 43.054688 54.523438 43.285156 C 54.996094 43.527344 55.558594 43.386719 55.832031 42.921875 C 56.972656 40.992188 57.59375 38.710938 57.679688 36.480469 C 57.820312 32.75 56.238281 29.078125 53.515625 26.542969 C 52.667969 25.757812 51.722656 25.054688 50.703125 24.511719 C 50.261719 24.273438 49.632812 24.40625 49.394531 24.875 C 49.167969 25.335938 49.289062 25.933594 49.761719 26.1875 Z M 47.511719 30.304688 C 47.710938 30.421875 47.902344 30.546875 48.085938 30.679688 C 48.125 30.703125 48.160156 30.730469 48.195312 30.757812 C 48.316406 30.84375 48.101562 30.6875 48.101562 30.683594 C 48.164062 30.738281 48.234375 30.785156 48.296875 30.839844 C 48.457031 30.96875 48.609375 31.105469 48.757812 31.246094 C 48.914062 31.390625 49.058594 31.539062 49.199219 31.695312 C 49.277344 31.777344 49.347656 31.859375 49.421875 31.945312 C 49.464844 32 49.507812 32.054688 49.554688 32.109375 C 49.679688 32.261719 49.449219 31.957031 49.574219 32.136719 C 49.890625 32.585938 50.179688 33.046875 50.40625 33.546875 C 50.402344 33.542969 50.511719 33.792969 50.460938 33.667969 C 50.410156 33.539062 50.511719 33.804688 50.507812 33.796875 C 50.558594 33.925781 50.601562 34.054688 50.644531 34.1875 C 50.730469 34.460938 50.800781 34.734375 50.855469 35.011719 C 50.863281 35.0625 50.933594 35.453125 50.894531 35.207031 C 50.914062 35.324219 50.925781 35.445312 50.9375 35.5625 C 50.960938 35.8125 50.972656 36.066406 50.96875 36.316406 C 50.96875 36.535156 50.960938 36.75 50.941406 36.964844 C 50.9375 37.007812 50.933594 37.050781 50.929688 37.089844 C 50.910156 37.3125 50.960938 36.875 50.929688 37.089844 C 50.914062 37.207031 50.898438 37.324219 50.878906 37.441406 C 50.8125 37.808594 50.726562 38.171875 50.617188 38.527344 C 50.566406 38.6875 50.515625 38.84375 50.457031 38.996094 C 50.441406 39.035156 50.429688 39.074219 50.414062 39.109375 C 50.355469 39.269531 50.515625 38.863281 50.453125 39.015625 C 50.425781 39.078125 50.398438 39.144531 50.371094 39.207031 C 50.296875 39.375 50.21875 39.542969 50.132812 39.703125 C 49.894531 40.148438 50.023438 40.773438 50.496094 41.011719 C 50.949219 41.242188 51.550781 41.121094 51.804688 40.648438 C 52.46875 39.394531 52.832031 37.96875 52.882812 36.550781 C 52.96875 34.175781 52.023438 31.839844 50.375 30.140625 C 49.8125 29.558594 49.15625 29.042969 48.457031 28.628906 C 48.023438 28.371094 47.378906 28.535156 47.148438 28.992188 C 46.90625 29.46875 47.046875 30.03125 47.511719 30.304688 Z M 47.511719 30.304688 "/></g></g></g><g style="fill:#000000;fill-opacity:1;"><g transform="translate(76.156213, 49.604239)"><path style="stroke:none" d="M 8.21875 -11.984375 C 8.21875 -9.953125 8.660156 -8.320312 9.546875 -7.09375 C 10.441406 -5.863281 11.679688 -5.25 13.265625 -5.25 C 15.015625 -5.25 16.351562 -5.84375 17.28125 -7.03125 C 18.21875 -8.226562 18.6875 -9.96875 18.6875 -12.25 C 18.6875 -14.363281 18.1875 -16.070312 17.1875 -17.375 C 16.1875 -18.675781 14.863281 -19.328125 13.21875 -19.328125 C 11.75 -19.328125 10.546875 -18.710938 9.609375 -17.484375 C 8.679688 -16.253906 8.21875 -14.421875 8.21875 -11.984375 Z M 25.03125 -24.21875 L 25.03125 -0.59375 C 25.03125 3.0625 24.019531 5.71875 22 7.375 C 19.988281 9.039062 16.914062 9.875 12.78125 9.875 C 9.800781 9.875 7.320312 9.226562 5.34375 7.9375 C 3.363281 6.644531 2.316406 4.863281 2.203125 2.59375 L 9.140625 2.59375 C 9.296875 4.226562 10.789062 5.046875 13.625 5.046875 C 16.96875 5.046875 18.640625 3.296875 18.640625 -0.203125 L 18.640625 -3.421875 L 18.5625 -3.515625 C 17.332031 -1.078125 15.175781 0.140625 12.09375 0.140625 C 8.9375 0.140625 6.410156 -0.953125 4.515625 -3.140625 C 2.617188 -5.328125 1.671875 -8.40625 1.671875 -12.375 C 1.671875 -16.269531 2.613281 -19.320312 4.5 -21.53125 C 6.382812 -23.738281 8.796875 -24.84375 11.734375 -24.84375 C 15.078125 -24.84375 17.441406 -23.4375 18.828125 -20.625 L 18.90625 -20.625 L 18.90625 -24.21875 Z M 25.03125 -24.21875 "/></g></g><g style="fill:#000000;fill-opacity:1;"><g transform="translate(104.166441, 49.604239)"><path style="stroke:none" d="M 9.484375 -27.09375 L 3.109375 -27.09375 L 3.109375 -33 L 9.484375 -33 Z M 9.484375 -24.21875 L 9.484375 0 L 3.109375 0 L 3.109375 -24.21875 Z M 9.484375 -24.21875 "/></g></g><g style="fill:#000000;fill-opacity:1;"><g transform="translate(116.761048, 49.604239)"><path style="stroke:none" d="M 10.21875 -24.21875 L 14.171875 -24.21875 L 14.171875 -19.671875 L 10.21875 -19.671875 L 10.21875 -6.09375 C 10.21875 -5.457031 10.390625 -5.039062 10.734375 -4.84375 C 11.085938 -4.65625 11.628906 -4.5625 12.359375 -4.5625 C 13.085938 -4.5625 13.691406 -4.585938 14.171875 -4.640625 L 14.171875 0.09375 C 13.242188 0.238281 12.097656 0.3125 10.734375 0.3125 C 8.210938 0.3125 6.429688 -0.0664062 5.390625 -0.828125 C 4.359375 -1.597656 3.84375 -2.972656 3.84375 -4.953125 L 3.84375 -19.671875 L 0.5625 -19.671875 L 0.5625 -24.21875 L 3.84375 -24.21875 L 3.84375 -30.765625 L 10.21875 -30.765625 Z M 10.21875 -24.21875 "/></g></g><g style="fill:#000000;fill-opacity:1;"><g transform="translate(132.043392, 49.604239)"><path style="stroke:none" d="M 23.90625 -8.828125 C 23.550781 -5.992188 22.414062 -3.707031 20.5 -1.96875 C 18.59375 -0.226562 16.039062 0.640625 12.84375 0.640625 C 9.226562 0.640625 6.460938 -0.429688 4.546875 -2.578125 C 2.628906 -4.722656 1.671875 -7.671875 1.671875 -11.421875 C 1.671875 -15.867188 2.679688 -19.21875 4.703125 -21.46875 C 6.722656 -23.71875 9.578125 -24.84375 13.265625 -24.84375 C 16.140625 -24.84375 18.578125 -24.054688 20.578125 -22.484375 C 22.578125 -20.921875 23.703125 -18.613281 23.953125 -15.5625 L 17.484375 -15.5625 C 17.253906 -16.90625 16.78125 -17.894531 16.0625 -18.53125 C 15.351562 -19.164062 14.421875 -19.484375 13.265625 -19.484375 C 11.640625 -19.484375 10.390625 -18.835938 9.515625 -17.546875 C 8.648438 -16.265625 8.21875 -14.570312 8.21875 -12.46875 C 8.21875 -9.425781 8.660156 -7.351562 9.546875 -6.25 C 10.429688 -5.144531 11.628906 -4.59375 13.140625 -4.59375 C 14.347656 -4.59375 15.34375 -5.007812 16.125 -5.84375 C 16.914062 -6.6875 17.359375 -7.679688 17.453125 -8.828125 Z M 23.90625 -8.828125 "/></g></g><g style="fill:#000000;fill-opacity:1;"><g transform="translate(157.432521, 49.604239)"><path style="stroke:none" d="M 17 -11.734375 C 16.21875 -11.179688 14.691406 -10.742188 12.421875 -10.421875 C 10.523438 -10.148438 9.285156 -9.722656 8.703125 -9.140625 C 8.117188 -8.554688 7.828125 -7.785156 7.828125 -6.828125 C 7.828125 -5.859375 8.132812 -5.128906 8.75 -4.640625 C 9.375 -4.148438 10.117188 -3.90625 10.984375 -3.90625 C 12.609375 -3.90625 14.015625 -4.359375 15.203125 -5.265625 C 16.398438 -6.179688 17 -7.320312 17 -8.6875 Z M 23.21875 -4.734375 C 23.21875 -3.617188 23.320312 -2.742188 23.53125 -2.109375 C 23.738281 -1.484375 24.101562 -1.097656 24.625 -0.953125 L 24.625 0 L 17.796875 0 C 17.503906 -0.8125 17.296875 -1.765625 17.171875 -2.859375 C 15.097656 -0.523438 12.40625 0.640625 9.09375 0.640625 C 6.789062 0.640625 4.9375 0.00390625 3.53125 -1.265625 C 2.132812 -2.535156 1.4375 -4.253906 1.4375 -6.421875 C 1.4375 -8.492188 2.046875 -10.203125 3.265625 -11.546875 C 4.492188 -12.898438 6.320312 -13.753906 8.75 -14.109375 L 14.71875 -14.984375 C 15.53125 -15.097656 16.113281 -15.320312 16.46875 -15.65625 C 16.820312 -15.988281 17 -16.414062 17 -16.9375 C 17 -17.863281 16.65625 -18.566406 15.96875 -19.046875 C 15.289062 -19.535156 14.25 -19.78125 12.84375 -19.78125 C 11.375 -19.78125 10.300781 -19.507812 9.625 -18.96875 C 8.957031 -18.4375 8.539062 -17.570312 8.375 -16.375 L 2.21875 -16.375 C 2.53125 -19.320312 3.535156 -21.46875 5.234375 -22.8125 C 6.929688 -24.164062 9.640625 -24.84375 13.359375 -24.84375 C 16.347656 -24.84375 18.738281 -24.242188 20.53125 -23.046875 C 22.320312 -21.847656 23.21875 -20.113281 23.21875 -17.84375 Z M 23.21875 -4.734375 "/></g></g><g style="fill:#000000;fill-opacity:1;"><g transform="translate(183.421392, 49.604239)"><path style="stroke:none" d="M 9.484375 0 L 3.109375 0 L 3.109375 -32.671875 L 9.484375 -32.671875 Z M 9.484375 0 "/></g></g><g style="fill:#000000;fill-opacity:1;"><g transform="translate(196.015998, 49.604239)"><path style="stroke:none" d="M 9.484375 0 L 3.109375 0 L 3.109375 -32.671875 L 9.484375 -32.671875 Z M 9.484375 0 "/></g></g></g></svg>