<svg xmlns="http://www.w3.org/2000/svg" xmlns:xlink="http://www.w3.org/1999/xlink" width="300" zoomAndPan="magnify" viewBox="0 0 224.87999 74.999997" height="100" preserveAspectRatio="xMidYMid meet" version="1.2"><defs><clipPath id="d22aaa7784"><path d="M 0 0.0195312 L 224.761719 0.0195312 L 224.761719 74.980469 L 0 74.980469 Z M 0 0.0195312 "/></clipPath><clipPath id="99113fcd48"><path d="M 25 13 L 63 13 L 63 62 L 25 62 Z M 25 13 "/></clipPath><clipPath id="bfa6b468f7"><path d="M 32.792969 8.539062 L 69.355469 29.164062 L 48.730469 65.726562 L 12.167969 45.101562 Z M 32.792969 8.539062 "/></clipPath><clipPath id="6a99fdee78"><path d="M 32.792969 8.539062 L 69.355469 29.164062 L 48.730469 65.726562 L 12.167969 45.101562 Z M 32.792969 8.539062 "/></clipPath></defs><g id="5fbe81fcc5"><g clip-rule="nonzero" clip-path="url(#d22aaa7784)"><path style=" stroke:none;fill-rule:nonzero;fill:#ffffff;fill-opacity:1;" d="M 0 0.0195312 L 224.878906 0.0195312 L 224.878906 74.980469 L 0 74.980469 Z M 0 0.0195312 "/><path style=" stroke:none;fill-rule:nonzero;fill:#fbfbf5;fill-opacity:1;" d="M 0 0.0195312 L 224.878906 0.0195312 L 224.878906 74.980469 L 0 74.980469 Z M 0 0.0195312 "/></g><g clip-rule="nonzero" clip-path="url(#99113fcd48)"><g clip-rule="nonzero" clip-path="url(#bfa6b468f7)"><g clip-rule="nonzero" clip-path="url(#6a99fdee78)"><path style=" stroke:none;fill-rule:nonzero;fill:#ff3131;fill-opacity:1;" d="M 35.398438 56.566406 C 32.839844 54.109375 31.609375 51.675781 30.320312 49.066406 C 27.542969 43.445312 26.46875 38.230469 26.019531 34.605469 C 25.632812 31.46875 25.132812 27.0625 26.558594 21.769531 C 27.683594 17.597656 29.136719 16.097656 29.933594 15.410156 C 31.925781 13.691406 35.46875 12.175781 37.664062 13.582031 C 38.699219 14.246094 39.109375 15.808594 39.894531 18.917969 C 40.910156 22.941406 41.417969 24.957031 40.492188 26.246094 C 40.492188 26.246094 39.921875 27.039062 34.726562 28.597656 C 34.726562 28.597656 34.585938 33.035156 35.34375 36.660156 C 36.558594 42.46875 40.320312 47.328125 40.320312 47.328125 C 40.320312 47.328125 43.949219 45.46875 46.144531 46.402344 C 47.355469 46.921875 47.828125 48.207031 48.722656 50.757812 C 50.15625 54.855469 51.085938 57.503906 49.710938 59.328125 C 48.183594 61.359375 44.761719 61.070312 43.648438 60.976562 C 39.726562 60.652344 37.058594 58.160156 35.398438 56.566406 Z M 52.328125 21.789062 C 52.707031 22 53.082031 22.230469 53.445312 22.472656 C 53.578125 22.5625 53.714844 22.65625 53.847656 22.75 C 53.90625 22.792969 53.964844 22.832031 54.023438 22.875 C 54.101562 22.933594 54.378906 23.183594 54.113281 22.941406 C 54.402344 23.203125 54.730469 23.429688 55.027344 23.683594 C 55.75 24.316406 56.425781 25.003906 57.035156 25.742188 C 57.121094 25.847656 57.207031 25.953125 57.292969 26.058594 C 57.441406 26.242188 57.164062 25.890625 57.308594 26.082031 C 57.347656 26.136719 57.394531 26.191406 57.433594 26.25 C 57.605469 26.476562 57.769531 26.714844 57.929688 26.949219 C 58.25 27.429688 58.542969 27.929688 58.8125 28.441406 C 58.960938 28.722656 59.097656 29.007812 59.230469 29.296875 C 59.25 29.347656 59.273438 29.394531 59.292969 29.445312 C 59.304688 29.46875 59.410156 29.71875 59.328125 29.519531 C 59.402344 29.695312 59.472656 29.878906 59.542969 30.058594 C 59.765625 30.65625 59.953125 31.261719 60.105469 31.882812 C 60.183594 32.183594 60.25 32.492188 60.308594 32.800781 C 60.332031 32.925781 60.355469 33.050781 60.375 33.175781 C 60.386719 33.25 60.398438 33.328125 60.410156 33.402344 C 60.375 33.160156 60.421875 33.488281 60.425781 33.53125 C 60.496094 34.082031 60.535156 34.636719 60.550781 35.191406 C 60.5625 35.734375 60.546875 36.28125 60.507812 36.824219 C 60.5 36.929688 60.492188 37.039062 60.480469 37.148438 C 60.476562 37.214844 60.46875 37.277344 60.460938 37.34375 C 60.460938 37.363281 60.457031 37.382812 60.457031 37.40625 C 60.441406 37.507812 60.445312 37.492188 60.460938 37.347656 C 60.480469 37.453125 60.429688 37.617188 60.414062 37.722656 C 60.394531 37.847656 60.375 37.96875 60.355469 38.089844 C 60.214844 38.957031 60.007812 39.816406 59.742188 40.652344 C 59.613281 41.058594 59.453125 41.449219 59.316406 41.84375 C 59.316406 41.851562 59.421875 41.589844 59.363281 41.726562 C 59.339844 41.773438 59.320312 41.828125 59.300781 41.878906 C 59.265625 41.964844 59.230469 42.050781 59.191406 42.132812 C 59.128906 42.277344 59.066406 42.421875 59 42.566406 C 58.824219 42.941406 58.632812 43.316406 58.425781 43.679688 C 58.175781 44.113281 58.328125 44.753906 58.789062 44.988281 C 59.257812 45.222656 59.828125 45.089844 60.097656 44.621094 C 61.597656 42.003906 62.40625 38.929688 62.472656 35.921875 C 62.582031 30.976562 60.480469 26.15625 56.886719 22.78125 C 55.796875 21.757812 54.578125 20.84375 53.269531 20.117188 C 52.828125 19.875 52.199219 20.015625 51.960938 20.484375 C 51.726562 20.941406 51.855469 21.527344 52.328125 21.789062 Z M 49.761719 25.949219 C 50.050781 26.101562 50.335938 26.273438 50.609375 26.449219 C 50.820312 26.589844 51.027344 26.734375 51.234375 26.882812 C 51.402344 27.007812 51.03125 26.726562 51.242188 26.890625 C 51.296875 26.933594 51.351562 26.972656 51.402344 27.015625 C 51.53125 27.117188 51.65625 27.21875 51.777344 27.324219 C 52.328125 27.796875 52.835938 28.3125 53.300781 28.871094 C 53.359375 28.945312 53.414062 29.015625 53.472656 29.085938 C 53.585938 29.226562 53.449219 29.074219 53.449219 29.054688 C 53.453125 29.078125 53.515625 29.140625 53.535156 29.164062 C 53.664062 29.339844 53.789062 29.515625 53.910156 29.699219 C 54.160156 30.078125 54.394531 30.476562 54.601562 30.882812 C 54.699219 31.074219 54.792969 31.265625 54.878906 31.464844 C 54.898438 31.511719 54.921875 31.5625 54.945312 31.613281 C 54.875 31.449219 54.929688 31.585938 54.945312 31.617188 C 54.996094 31.75 55.046875 31.878906 55.09375 32.011719 C 55.257812 32.464844 55.398438 32.933594 55.503906 33.40625 C 55.550781 33.605469 55.59375 33.804688 55.625 34.007812 C 55.644531 34.105469 55.660156 34.203125 55.671875 34.300781 C 55.648438 34.097656 55.664062 34.234375 55.667969 34.277344 C 55.679688 34.351562 55.6875 34.421875 55.695312 34.496094 C 55.742188 34.90625 55.765625 35.316406 55.765625 35.730469 C 55.769531 36.117188 55.753906 36.507812 55.71875 36.894531 C 55.710938 36.964844 55.722656 37.085938 55.691406 37.148438 C 55.75 37.027344 55.710938 36.992188 55.699219 37.089844 C 55.691406 37.140625 55.6875 37.191406 55.679688 37.242188 C 55.65625 37.425781 55.625 37.605469 55.59375 37.785156 C 55.480469 38.40625 55.320312 39.019531 55.121094 39.621094 C 55.070312 39.769531 55.019531 39.921875 54.964844 40.070312 C 54.9375 40.140625 54.910156 40.210938 54.882812 40.28125 C 54.828125 40.421875 54.933594 40.160156 54.929688 40.164062 C 54.914062 40.199219 54.898438 40.242188 54.882812 40.28125 C 54.789062 40.507812 54.691406 40.730469 54.582031 40.949219 C 54.453125 41.21875 54.3125 41.484375 54.160156 41.742188 C 53.90625 42.171875 54.070312 42.816406 54.523438 43.050781 C 54.996094 43.289062 55.558594 43.148438 55.832031 42.683594 C 56.972656 40.753906 57.59375 38.472656 57.679688 36.242188 C 57.820312 32.511719 56.238281 28.839844 53.515625 26.304688 C 52.667969 25.519531 51.722656 24.816406 50.703125 24.273438 C 50.261719 24.035156 49.632812 24.167969 49.394531 24.636719 C 49.167969 25.097656 49.289062 25.695312 49.761719 25.949219 Z M 47.511719 30.066406 C 47.710938 30.183594 47.902344 30.308594 48.085938 30.441406 C 48.125 30.464844 48.160156 30.492188 48.195312 30.519531 C 48.316406 30.605469 48.101562 30.449219 48.101562 30.445312 C 48.164062 30.5 48.234375 30.546875 48.296875 30.601562 C 48.457031 30.730469 48.609375 30.867188 48.757812 31.007812 C 48.914062 31.152344 49.058594 31.300781 49.199219 31.457031 C 49.277344 31.539062 49.347656 31.621094 49.421875 31.707031 C 49.464844 31.761719 49.507812 31.816406 49.554688 31.871094 C 49.679688 32.023438 49.449219 31.71875 49.574219 31.898438 C 49.890625 32.347656 50.179688 32.808594 50.40625 33.308594 C 50.402344 33.304688 50.511719 33.554688 50.460938 33.429688 C 50.410156 33.300781 50.511719 33.566406 50.507812 33.558594 C 50.558594 33.6875 50.601562 33.820312 50.644531 33.949219 C 50.730469 34.222656 50.800781 34.496094 50.855469 34.773438 C 50.863281 34.824219 50.933594 35.214844 50.894531 34.96875 C 50.914062 35.085938 50.925781 35.207031 50.9375 35.324219 C 50.960938 35.574219 50.972656 35.828125 50.96875 36.082031 C 50.96875 36.296875 50.960938 36.511719 50.941406 36.730469 C 50.9375 36.769531 50.933594 36.8125 50.929688 36.855469 C 50.910156 37.074219 50.960938 36.636719 50.929688 36.851562 C 50.914062 36.96875 50.898438 37.085938 50.878906 37.203125 C 50.8125 37.570312 50.726562 37.933594 50.617188 38.289062 C 50.566406 38.449219 50.515625 38.605469 50.457031 38.757812 C 50.441406 38.796875 50.429688 38.835938 50.414062 38.871094 C 50.355469 39.03125 50.515625 38.625 50.453125 38.777344 C 50.425781 38.839844 50.398438 38.90625 50.371094 38.96875 C 50.296875 39.136719 50.21875 39.304688 50.132812 39.464844 C 49.894531 39.910156 50.023438 40.535156 50.496094 40.773438 C 50.949219 41.003906 51.550781 40.886719 51.804688 40.410156 C 52.46875 39.15625 52.832031 37.730469 52.882812 36.3125 C 52.96875 33.9375 52.023438 31.601562 50.375 29.902344 C 49.8125 29.320312 49.15625 28.804688 48.457031 28.390625 C 48.023438 28.132812 47.378906 28.296875 47.148438 28.753906 C 46.90625 29.230469 47.046875 29.792969 47.511719 30.066406 Z M 47.511719 30.066406 "/></g></g></g><g style="fill:#000000;fill-opacity:1;"><g transform="translate(76.200462, 49.604239)"><path style="stroke:none" d="M 8.21875 -11.984375 C 8.21875 -9.953125 8.660156 -8.320312 9.546875 -7.09375 C 10.441406 -5.863281 11.679688 -5.25 13.265625 -5.25 C 15.015625 -5.25 16.351562 -5.84375 17.28125 -7.03125 C 18.21875 -8.226562 18.6875 -9.96875 18.6875 -12.25 C 18.6875 -14.363281 18.1875 -16.070312 17.1875 -17.375 C 16.1875 -18.675781 14.863281 -19.328125 13.21875 -19.328125 C 11.75 -19.328125 10.546875 -18.710938 9.609375 -17.484375 C 8.679688 -16.253906 8.21875 -14.421875 8.21875 -11.984375 Z M 25.03125 -24.21875 L 25.03125 -0.59375 C 25.03125 3.0625 24.019531 5.71875 22 7.375 C 19.988281 9.039062 16.914062 9.875 12.78125 9.875 C 9.800781 9.875 7.320312 9.226562 5.34375 7.9375 C 3.363281 6.644531 2.316406 4.863281 2.203125 2.59375 L 9.140625 2.59375 C 9.296875 4.226562 10.789062 5.046875 13.625 5.046875 C 16.96875 5.046875 18.640625 3.296875 18.640625 -0.203125 L 18.640625 -3.421875 L 18.5625 -3.515625 C 17.332031 -1.078125 15.175781 0.140625 12.09375 0.140625 C 8.9375 0.140625 6.410156 -0.953125 4.515625 -3.140625 C 2.617188 -5.328125 1.671875 -8.40625 1.671875 -12.375 C 1.671875 -16.269531 2.613281 -19.320312 4.5 -21.53125 C 6.382812 -23.738281 8.796875 -24.84375 11.734375 -24.84375 C 15.078125 -24.84375 17.441406 -23.4375 18.828125 -20.625 L 18.90625 -20.625 L 18.90625 -24.21875 Z M 25.03125 -24.21875 "/></g></g><g style="fill:#000000;fill-opacity:1;"><g transform="translate(104.21069, 49.604239)"><path style="stroke:none" d="M 9.484375 -27.09375 L 3.109375 -27.09375 L 3.109375 -33 L 9.484375 -33 Z M 9.484375 -24.21875 L 9.484375 0 L 3.109375 0 L 3.109375 -24.21875 Z M 9.484375 -24.21875 "/></g></g><g style="fill:#000000;fill-opacity:1;"><g transform="translate(116.805297, 49.604239)"><path style="stroke:none" d="M 10.21875 -24.21875 L 14.171875 -24.21875 L 14.171875 -19.671875 L 10.21875 -19.671875 L 10.21875 -6.09375 C 10.21875 -5.457031 10.390625 -5.039062 10.734375 -4.84375 C 11.085938 -4.65625 11.628906 -4.5625 12.359375 -4.5625 C 13.085938 -4.5625 13.691406 -4.585938 14.171875 -4.640625 L 14.171875 0.09375 C 13.242188 0.238281 12.097656 0.3125 10.734375 0.3125 C 8.210938 0.3125 6.429688 -0.0664062 5.390625 -0.828125 C 4.359375 -1.597656 3.84375 -2.972656 3.84375 -4.953125 L 3.84375 -19.671875 L 0.5625 -19.671875 L 0.5625 -24.21875 L 3.84375 -24.21875 L 3.84375 -30.765625 L 10.21875 -30.765625 Z M 10.21875 -24.21875 "/></g></g><g style="fill:#000000;fill-opacity:1;"><g transform="translate(132.087642, 49.604239)"><path style="stroke:none" d="M 23.90625 -8.828125 C 23.550781 -5.992188 22.414062 -3.707031 20.5 -1.96875 C 18.59375 -0.226562 16.039062 0.640625 12.84375 0.640625 C 9.226562 0.640625 6.460938 -0.429688 4.546875 -2.578125 C 2.628906 -4.722656 1.671875 -7.671875 1.671875 -11.421875 C 1.671875 -15.867188 2.679688 -19.21875 4.703125 -21.46875 C 6.722656 -23.71875 9.578125 -24.84375 13.265625 -24.84375 C 16.140625 -24.84375 18.578125 -24.054688 20.578125 -22.484375 C 22.578125 -20.921875 23.703125 -18.613281 23.953125 -15.5625 L 17.484375 -15.5625 C 17.253906 -16.90625 16.78125 -17.894531 16.0625 -18.53125 C 15.351562 -19.164062 14.421875 -19.484375 13.265625 -19.484375 C 11.640625 -19.484375 10.390625 -18.835938 9.515625 -17.546875 C 8.648438 -16.265625 8.21875 -14.570312 8.21875 -12.46875 C 8.21875 -9.425781 8.660156 -7.351562 9.546875 -6.25 C 10.429688 -5.144531 11.628906 -4.59375 13.140625 -4.59375 C 14.347656 -4.59375 15.34375 -5.007812 16.125 -5.84375 C 16.914062 -6.6875 17.359375 -7.679688 17.453125 -8.828125 Z M 23.90625 -8.828125 "/></g></g><g style="fill:#000000;fill-opacity:1;"><g transform="translate(157.47677, 49.604239)"><path style="stroke:none" d="M 17 -11.734375 C 16.21875 -11.179688 14.691406 -10.742188 12.421875 -10.421875 C 10.523438 -10.148438 9.285156 -9.722656 8.703125 -9.140625 C 8.117188 -8.554688 7.828125 -7.785156 7.828125 -6.828125 C 7.828125 -5.859375 8.132812 -5.128906 8.75 -4.640625 C 9.375 -4.148438 10.117188 -3.90625 10.984375 -3.90625 C 12.609375 -3.90625 14.015625 -4.359375 15.203125 -5.265625 C 16.398438 -6.179688 17 -7.320312 17 -8.6875 Z M 23.21875 -4.734375 C 23.21875 -3.617188 23.320312 -2.742188 23.53125 -2.109375 C 23.738281 -1.484375 24.101562 -1.097656 24.625 -0.953125 L 24.625 0 L 17.796875 0 C 17.503906 -0.8125 17.296875 -1.765625 17.171875 -2.859375 C 15.097656 -0.523438 12.40625 0.640625 9.09375 0.640625 C 6.789062 0.640625 4.9375 0.00390625 3.53125 -1.265625 C 2.132812 -2.535156 1.4375 -4.253906 1.4375 -6.421875 C 1.4375 -8.492188 2.046875 -10.203125 3.265625 -11.546875 C 4.492188 -12.898438 6.320312 -13.753906 8.75 -14.109375 L 14.71875 -14.984375 C 15.53125 -15.097656 16.113281 -15.320312 16.46875 -15.65625 C 16.820312 -15.988281 17 -16.414062 17 -16.9375 C 17 -17.863281 16.65625 -18.566406 15.96875 -19.046875 C 15.289062 -19.535156 14.25 -19.78125 12.84375 -19.78125 C 11.375 -19.78125 10.300781 -19.507812 9.625 -18.96875 C 8.957031 -18.4375 8.539062 -17.570312 8.375 -16.375 L 2.21875 -16.375 C 2.53125 -19.320312 3.535156 -21.46875 5.234375 -22.8125 C 6.929688 -24.164062 9.640625 -24.84375 13.359375 -24.84375 C 16.347656 -24.84375 18.738281 -24.242188 20.53125 -23.046875 C 22.320312 -21.847656 23.21875 -20.113281 23.21875 -17.84375 Z M 23.21875 -4.734375 "/></g></g><g style="fill:#000000;fill-opacity:1;"><g transform="translate(183.465641, 49.604239)"><path style="stroke:none" d="M 9.484375 0 L 3.109375 0 L 3.109375 -32.671875 L 9.484375 -32.671875 Z M 9.484375 0 "/></g></g><g style="fill:#000000;fill-opacity:1;"><g transform="translate(196.060247, 49.604239)"><path style="stroke:none" d="M 9.484375 0 L 3.109375 0 L 3.109375 -32.671875 L 9.484375 -32.671875 Z M 9.484375 0 "/></g></g></g></svg>