<svg width="1374" height="390" viewBox="0 0 1374 390" fill="none" xmlns="http://www.w3.org/2000/svg">
<path fill-rule="evenodd" clip-rule="evenodd" d="M41.5268 7.41305C78.1366 -10.3583 122.219 4.91768 139.988 41.5328L191.536 147.755L243.919 41.1958C261.873 4.67161 306.033 -10.3798 342.552 7.57763C379.071 25.535 394.12 69.7011 376.165 106.225L257.232 348.164C244.81 373.433 219.076 389.414 190.921 389.342C162.767 389.271 137.114 373.159 124.821 347.827L7.41197 105.888C-10.3568 69.2733 4.91696 25.1844 41.5268 7.41305ZM568.188 0.0170196C596.342 0.0886733 621.995 16.2003 634.288 41.5328L751.697 283.471C762.78 306.309 761.33 333.245 747.858 354.761C734.387 376.276 710.791 389.343 685.409 389.343H449.067C423.618 389.343 399.97 376.208 386.518 354.602C373.066 332.995 371.715 305.976 382.943 283.134L501.877 41.1958C514.299 15.9262 540.033 -0.0546288 568.188 0.0170196ZM836.946 73.7106C836.946 33.0106 869.935 0.0167809 910.629 0.0167809H1014.9C1016.94 0.0167809 1018.99 0.102034 1021.03 0.272319L1050.33 2.71959C1059.14 3.45459 1074.72 5.55651 1091.1 14.2219C1176.45 59.3472 1176.45 182.625 1091.1 227.75C1074.72 236.415 1059.14 238.517 1050.33 239.252L1021.03 241.7C1018.99 241.87 1016.94 241.955 1014.9 241.955H984.312V315.649C984.312 356.349 951.323 389.343 910.629 389.343C869.935 389.343 836.946 356.349 836.946 315.649V73.7106ZM1299.9 0.0167809C1340.59 0.0167809 1373.58 33.0106 1373.58 73.7106V315.649C1373.58 356.349 1340.59 389.343 1299.9 389.343C1259.2 389.343 1226.22 356.349 1226.22 315.649V73.7106C1226.22 33.0106 1259.2 0.0167809 1299.9 0.0167809ZM567.401 241.955H567.743L567.573 241.605L567.401 241.955Z" fill="#09090B"/>
</svg>
